<?xml version="1.0" encoding="utf-8"?>
<!-- Generator: Adobe Illustrator 16.0.0, SVG Export Plug-In . SVG Version: 6.00 Build 0)  -->
<!DOCTYPE svg PUBLIC "-//W3C//DTD SVG 1.1//EN" "http://www.w3.org/Graphics/SVG/1.1/DTD/svg11.dtd">
<svg version="1.1" id="Capa_1" xmlns="http://www.w3.org/2000/svg" xmlns:xlink="http://www.w3.org/1999/xlink" x="0px" y="0px"
	 width="175px" height="66.357px" viewBox="0 0 175 66.357" enable-background="new 0 0 175 66.357" xml:space="preserve">
<g>
	<g>
		<path fill="#C3360E" d="M65.616,61.056c0,2.336-1.895,4.231-4.231,4.231H5.638c-2.337,0-4.232-1.896-4.232-4.231V5.308
			c0-2.338,1.896-4.23,4.232-4.23h55.747c2.337,0,4.231,1.894,4.231,4.23V61.056z"/>
		<path fill="#FFFFFF" d="M58.34,42.294l-0.037-15.071c0-3.933-3.188-7.12-7.121-7.12L29.86,20.117V31.97h11.87v26.206L58.34,42.294
			z"/>
		<path fill="#FFFFFF" d="M25.089,41.505V6.62L8.423,20.081V50.99l0,0c0.001,3.95,3.204,7.154,7.156,7.154v0.001h21.389v-16.64
			H25.089z"/>
	</g>
	<g>
		<g>
			<g>
				<path fill="#FFFFFF" d="M90.086,9.524c-1.525-0.518-2.703-0.911-5.397-0.911c-5.63,0-9.731,3.755-9.731,9.421
					c0,5.852,3.88,9.575,9.715,9.577c2.871,0,4.606-0.471,5.606-0.812V17.24h-6.511v2.157h3.88v5.583
					c-0.67,0.129-1.138,0.311-2.959,0.311c-3.824-0.006-6.939-2.873-6.939-7.179c0-4.113,2.823-7.189,7.068-7.189
					c2.374,0,3.774,0.419,5.058,1.271L90.086,9.524z"/>
				<path fill="#FFFFFF" d="M104.417,13.875h-2.472v6.213c0,3.263-1.272,5.526-4.092,5.526c-2.164-0.129-2.847-1.663-2.847-4.796
					L95,13.875h-2.473v7.977c0,3.608,1.552,5.76,5.041,5.76c1.865,0,3.656-0.918,4.395-2.441h0.061v2.14h2.394V13.875
					L104.417,13.875z"/>
				<polygon fill="#FFFFFF" points="106.115,27.308 117.036,27.308 117.036,25.304 108.977,25.304 116.725,16.042 116.725,13.881 
					106.482,13.875 106.482,15.877 113.859,15.877 106.115,25.143 				"/>
				<path fill="#FFFFFF" d="M119.171,27.308h2.472v-6.772c0-2.495,1.002-4.967,3.526-4.967c2.006,0,2.407,2.081,2.407,3.735v8.004
					h2.472v-6.766c0-2.498,1.011-4.975,3.531-4.975c1.999,0,2.401,2.081,2.401,3.743l0.008,7.996h2.475v-8.605
					c0-2.924-1.246-5.132-4.669-5.132c-1.213-0.004-3.254,0.68-4.163,2.606c-0.719-1.815-2.275-2.61-3.831-2.61
					c-1.979,0-3.312,0.701-4.271,2.267h-0.043l-0.004-1.951h-2.312L119.171,27.308L119.171,27.308z"/>
				<path fill="#FFFFFF" d="M144.073,12.023h1.772l3.454-3.801h-2.874L144.073,12.023z M141.375,16.931
					c0.988-0.824,2.5-1.355,3.893-1.355c2.485,0,3.326,1.179,3.326,3.497c-0.979-0.045-1.664-0.045-2.64-0.045
					c-2.554,0-6.248,1.035-6.248,4.408c0,2.925,2.041,4.196,4.922,4.196c2.274,0,3.593-1.242,4.183-2.057h0.041v1.731h2.326
					c-0.054-0.393-0.109-1.108-0.109-2.623V19.12c0-3.652-1.563-5.55-5.406-5.55c-1.711,0-3.186,0.525-4.434,1.261L141.375,16.931z
					 M148.594,22.102c0,2.005-1.295,3.522-3.746,3.522c-1.144,0-2.509-0.759-2.509-2.188c0-2.369,3.322-2.582,4.67-2.582
					c0.523,0,1.05,0.062,1.585,0.062V22.102L148.594,22.102z"/>
				<path fill="#FFFFFF" d="M153.238,27.308l2.471,0.009v-6.214c0-3.27,1.268-5.527,4.083-5.527
					c2.161,0.135,2.851,1.661,2.851,4.791v6.95h2.48v-7.975c0-3.607-1.561-5.771-5.04-5.771c-1.87,0-3.668,0.924-4.401,2.449h-0.055
					v-2.133h-2.389V27.308z"/>
			</g>
			<g>
				<g>
					<polygon fill="#FFFFFF" points="93.059,50.969 103.391,50.978 103.391,48.66 95.689,48.66 95.678,32.598 93.051,32.598 					
						"/>
					<path fill="#FFFFFF" d="M106.206,40.604c0.985-0.839,2.483-1.37,3.894-1.37c2.481,0,3.317,1.187,3.317,3.51
						c-0.969-0.051-1.649-0.065-2.64-0.065c-2.561,0-6.245,1.062-6.245,4.426c0,2.918,2.018,4.188,4.935,4.188
						c2.262,0,3.584-1.24,4.165-2.057h0.044v1.743h2.336c-0.059-0.387-0.105-1.109-0.105-2.635v-5.558
						c0-3.653-1.557-5.546-5.418-5.559c-1.709,0-3.188,0.532-4.424,1.271L106.206,40.604z M113.417,45.762
						c0,2.003-1.288,3.528-3.735,3.528c-1.141,0-2.513-0.77-2.513-2.188c0-2.371,3.317-2.575,4.67-2.575
						c0.533,0,1.044,0.056,1.578,0.056V45.762z"/>
					<path fill="#FFFFFF" d="M117.779,50.978h2.479v-6.104c0-3.365,1.451-5.48,3.671-5.473c0.426,0,0.92,0.049,1.364,0.234v-2.214
						c-0.524-0.104-0.901-0.182-1.634-0.182c-1.424,0-2.848,0.998-3.514,2.396h-0.051v-2.083h-2.318L117.779,50.978z"/>
					<path fill="#FFFFFF" d="M126.945,50.981h2.463v-6.107c0-3.365,1.458-5.473,3.671-5.473c0.414,0,0.915,0.049,1.366,0.234v-2.214
						c-0.522-0.099-0.896-0.182-1.635-0.182c-1.422,0-2.848,0.998-3.498,2.396h-0.062v-2.083h-2.305V50.981L126.945,50.981z"/>
					<path fill="#FFFFFF" d="M136.417,40.611c0.996-0.846,2.51-1.37,3.909-1.37c2.471,0.004,3.312,1.191,3.312,3.509
						c-0.959-0.057-1.654-0.057-2.641-0.057c-2.559,0-6.241,1.05-6.241,4.418c0,2.922,2.027,4.181,4.929,4.188
						c2.27,0,3.594-1.242,4.172-2.058h0.041v1.739h2.334c-0.063-0.39-0.112-1.104-0.112-2.631v-5.548
						c0-3.661-1.558-5.562-5.406-5.562c-1.711,0-3.18,0.521-4.432,1.265L136.417,40.611z M143.639,45.777
						c0,2.001-1.293,3.521-3.734,3.521c-1.141,0-2.514-0.759-2.514-2.187c0-2.367,3.322-2.575,4.67-2.575
						c0.524,0,1.055,0.054,1.578,0.054V45.777z"/>
					<path fill="#FFFFFF" d="M147.702,35.688h1.756l3.467-3.795h-2.881L147.702,35.688z M148.198,50.981h2.487l-0.02-13.423h-2.469
						L148.198,50.981L148.198,50.981z"/>
					<path fill="#FFFFFF" d="M153.27,50.981h2.483l-0.007-6.212c0-3.252,1.268-5.524,4.08-5.516
						c2.162,0.118,2.852,1.646,2.852,4.786v6.947h2.491v-7.975c0-3.604-1.569-5.771-5.042-5.771c-1.879,0-3.672,0.923-4.404,2.452
						h-0.049v-2.13h-2.404V50.981z"/>
					<path fill="#FFFFFF" d="M86.553,41.624c-0.118,1.991-0.406,3.139-1.087,4.214l-3.533-4.045
						c1.835-0.822,3.818-2.315,3.818-4.535c0-2.74-2.052-3.942-4.324-3.942c-2.502,0-4.541,1.291-4.541,4.091
						c0,1.666,0.864,2.843,1.8,3.965c-2.357,0.955-3.896,2.444-3.896,5.086c0,2.914,2.178,4.863,5.617,4.863
						c2.22,0,3.738-0.57,4.985-1.996l1.448,1.699h3.112l-3.053-3.437c1.008-1.526,1.779-3.146,2-5.963H86.553z M77.428,46.285
						c0-1.724,1.132-2.54,2.456-3.443l4.199,4.917c-0.549,0.626-1.601,1.675-3.219,1.675C79.054,49.433,77.428,48.198,77.428,46.285
						z M79.239,37.456c0-1.498,0.94-2.243,2.095-2.243c1.188,0,2.062,0.552,2.062,2.145c0,1.47-1.568,2.544-2.61,3.038
						C80.029,39.573,79.239,38.616,79.239,37.456z"/>
				</g>
				<g>
					<g>
						<path fill="#FFFFFF" d="M170.359,50.953c-1.781,0-3.231-1.447-3.231-3.228c0-1.785,1.45-3.232,3.231-3.232
							c1.783,0,3.234,1.447,3.234,3.232C173.596,49.505,172.145,50.953,170.359,50.953z M170.359,44.88
							c-1.567,0-2.844,1.276-2.844,2.846c0,1.564,1.275,2.837,2.844,2.837c1.57,0,2.846-1.271,2.846-2.837
							C173.205,46.157,171.93,44.88,170.359,44.88z"/>
					</g>
					<g>
						<path fill="#FFFFFF" d="M169.156,45.731c0.271-0.048,0.662-0.087,1.025-0.087c0.571,0,0.945,0.113,1.196,0.341
							c0.203,0.185,0.328,0.467,0.328,0.791c0,0.541-0.345,0.904-0.774,1.051v0.021c0.312,0.11,0.502,0.405,0.602,0.836
							c0.136,0.578,0.234,0.979,0.32,1.137h-0.556c-0.065-0.122-0.159-0.472-0.271-0.988c-0.123-0.572-0.352-0.786-0.836-0.806
							h-0.504v1.794h-0.533v-4.089H169.156z M169.689,47.62h0.547c0.57,0,0.935-0.314,0.935-0.788c0-0.534-0.387-0.768-0.952-0.768
							c-0.258,0-0.438,0.018-0.529,0.041V47.62L169.689,47.62z"/>
					</g>
				</g>
			</g>
		</g>
		<g>
			<path fill="#FFFFFF" d="M75.139,56.001h2.404v0.54h-1.797v1.293h1.736v0.543h-1.736v1.318H77.6v0.539h-2.461V56.001z"/>
			<path fill="#FFFFFF" d="M90.451,56.001h0.566v4.241h-0.61v-3.302l-1.302,1.642h-0.112l-1.319-1.642v3.302h-0.606v-4.241h0.574
				l1.409,1.741L90.451,56.001z"/>
			<path fill="#FFFFFF" d="M100.73,60.243v-4.246h1.345c0.405,0,0.728,0.106,0.967,0.327c0.242,0.218,0.362,0.512,0.362,0.879
				c0,0.247-0.062,0.467-0.184,0.656c-0.125,0.19-0.293,0.326-0.51,0.414c-0.214,0.085-0.521,0.13-0.922,0.13h-0.449v1.84H100.73z
				 M101.969,56.537h-0.628v1.325h0.664c0.249,0,0.438-0.058,0.573-0.175c0.132-0.115,0.199-0.281,0.199-0.499
				C102.777,56.753,102.508,56.537,101.969,56.537z"/>
			<path fill="#FFFFFF" d="M112.781,60.243v-4.241h1.062c0.43,0,0.771,0.104,1.021,0.316c0.251,0.215,0.377,0.5,0.377,0.863
				c0,0.248-0.061,0.461-0.184,0.642c-0.125,0.18-0.303,0.314-0.533,0.401c0.138,0.091,0.271,0.213,0.397,0.366
				c0.13,0.153,0.312,0.422,0.548,0.804c0.147,0.241,0.266,0.421,0.354,0.543l0.227,0.306h-0.724l-0.185-0.279
				c-0.006-0.011-0.021-0.027-0.037-0.052l-0.117-0.168l-0.188-0.311l-0.204-0.332c-0.125-0.173-0.24-0.312-0.345-0.415
				c-0.103-0.104-0.198-0.178-0.282-0.223c-0.084-0.046-0.225-0.067-0.424-0.067h-0.158v1.847H112.781z M113.57,56.517h-0.182v1.34
				h0.23c0.309,0,0.518-0.027,0.633-0.08c0.115-0.052,0.203-0.132,0.27-0.237c0.062-0.105,0.094-0.228,0.094-0.362
				c0-0.134-0.036-0.255-0.105-0.362c-0.07-0.107-0.171-0.185-0.299-0.229C114.081,56.54,113.869,56.517,113.57,56.517z"/>
			<path fill="#FFFFFF" d="M125.352,56.001h2.403v0.54h-1.798v1.293h1.736v0.543h-1.736v1.318h1.855v0.539h-2.463v-4.233H125.352z"
				/>
			<path fill="#FFFFFF" d="M138.341,58.465l-0.463-0.281c-0.287-0.177-0.493-0.35-0.616-0.521c-0.123-0.17-0.183-0.366-0.183-0.59
				c0-0.334,0.114-0.605,0.347-0.814c0.231-0.208,0.532-0.311,0.902-0.311c0.354,0,0.679,0.098,0.977,0.296v0.69
				c-0.307-0.295-0.636-0.441-0.986-0.441c-0.198,0-0.361,0.046-0.489,0.138c-0.129,0.092-0.19,0.209-0.19,0.353
				c0,0.126,0.049,0.247,0.141,0.358c0.094,0.109,0.244,0.226,0.453,0.348l0.461,0.275c0.521,0.308,0.779,0.7,0.779,1.179
				c0,0.34-0.115,0.616-0.343,0.83c-0.229,0.212-0.522,0.317-0.888,0.317c-0.422,0-0.803-0.128-1.146-0.386v-0.771
				c0.328,0.416,0.707,0.624,1.139,0.624c0.19,0,0.35-0.054,0.477-0.16c0.126-0.104,0.189-0.237,0.189-0.396
				C138.9,58.943,138.712,58.698,138.341,58.465z"/>
			<path fill="#FFFFFF" d="M150.323,55.978h0.426l1.901,4.266h-0.621l-0.564-1.259h-1.811l-0.529,1.259h-0.623L150.323,55.978z
				 M151.215,58.445l-0.686-1.534l-0.633,1.534H151.215z"/>
			<path fill="#FFFFFF" d="M162.997,58.465l-0.462-0.281c-0.289-0.177-0.494-0.35-0.617-0.521c-0.122-0.17-0.184-0.366-0.184-0.59
				c0-0.334,0.115-0.605,0.347-0.814c0.231-0.208,0.534-0.311,0.905-0.311c0.354,0,0.678,0.098,0.973,0.296v0.69
				c-0.305-0.295-0.634-0.441-0.986-0.441c-0.197,0-0.359,0.046-0.488,0.138c-0.127,0.092-0.189,0.209-0.189,0.353
				c0,0.126,0.046,0.247,0.141,0.358c0.094,0.109,0.246,0.226,0.455,0.348l0.461,0.275c0.519,0.308,0.777,0.7,0.777,1.179
				c0,0.34-0.113,0.616-0.342,0.83c-0.229,0.212-0.523,0.317-0.889,0.317c-0.42,0-0.801-0.128-1.146-0.386v-0.771
				c0.328,0.416,0.708,0.624,1.138,0.624c0.191,0,0.352-0.054,0.478-0.16c0.125-0.104,0.188-0.237,0.188-0.396
				C163.557,58.943,163.369,58.698,162.997,58.465z"/>
		</g>
	</g>
</g>
</svg>
