<?xml version="1.0" encoding="utf-8"?>
<!-- Generator: Adobe Illustrator 16.0.0, SVG Export Plug-In . SVG Version: 6.00 Build 0)  -->
<!DOCTYPE svg PUBLIC "-//W3C//DTD SVG 1.1//EN" "http://www.w3.org/Graphics/SVG/1.1/DTD/svg11.dtd">
<svg version="1.1" id="Capa_1" xmlns="http://www.w3.org/2000/svg" xmlns:xlink="http://www.w3.org/1999/xlink" x="0px" y="0px"
	 width="175px" height="66.358px" viewBox="0 0 175 66.358" enable-background="new 0 0 175 66.358" xml:space="preserve">
<g>
	<g>
		<path fill-rule="evenodd" clip-rule="evenodd" fill="#C3360E" d="M65.616,61.056c0,2.336-1.895,4.231-4.231,4.231H5.638
			c-2.337,0-4.232-1.896-4.232-4.231V5.308c0-2.338,1.896-4.231,4.232-4.231h55.747c2.337,0,4.231,1.894,4.231,4.231V61.056z"/>
		<path fill-rule="evenodd" clip-rule="evenodd" fill="#FFFFFF" d="M58.34,42.294l-0.037-15.071c0-3.933-3.188-7.12-7.121-7.12
			L29.86,20.117v11.853h11.87v26.206L58.34,42.294z"/>
		<path fill-rule="evenodd" clip-rule="evenodd" fill="#FFFFFF" d="M25.089,41.505V6.62L8.423,20.081v30.908l0,0
			c0.001,3.951,3.204,7.155,7.156,7.155v0.001h21.389v-16.64H25.089z"/>
	</g>
	<g>
		<g>
			<g>
				<path fill-rule="evenodd" clip-rule="evenodd" fill="#27241F" d="M90.086,9.524c-1.525-0.518-2.703-0.911-5.397-0.911
					c-5.63,0-9.731,3.754-9.731,9.42c0,5.852,3.88,9.576,9.715,9.578c2.871,0,4.606-0.471,5.607-0.812v-9.559h-6.512v2.158h3.88
					v5.583c-0.67,0.129-1.138,0.31-2.959,0.31c-3.824-0.006-6.939-2.873-6.939-7.178c0-4.114,2.823-7.19,7.068-7.19
					c2.374,0,3.774,0.419,5.058,1.272L90.086,9.524z"/>
				<path fill-rule="evenodd" clip-rule="evenodd" fill="#27241F" d="M104.417,13.875h-2.472v6.213c0,3.263-1.272,5.526-4.091,5.526
					c-2.164-0.128-2.847-1.663-2.847-4.795l-0.007-6.944h-2.472v7.977c0,3.608,1.551,5.76,5.04,5.76
					c1.865,0,3.656-0.918,4.395-2.442h0.06v2.14h2.394V13.875z"/>
				<polygon fill-rule="evenodd" clip-rule="evenodd" fill="#27241F" points="106.115,27.308 117.036,27.308 117.036,25.304 
					108.976,25.304 116.725,16.042 116.725,13.881 106.482,13.875 106.482,15.877 113.859,15.877 106.115,25.143 				"/>
				<path fill-rule="evenodd" clip-rule="evenodd" fill="#27241F" d="M119.171,27.308h2.471v-6.773c0-2.495,1.003-4.966,3.527-4.966
					c2.006,0,2.407,2.081,2.407,3.735v8.004h2.472v-6.766c0-2.498,1.01-4.974,3.531-4.974c1.999,0,2.401,2.081,2.401,3.743
					l0.009,7.996h2.474v-8.606c0-2.923-1.246-5.131-4.669-5.131c-1.213-0.004-3.254,0.679-4.163,2.606
					c-0.719-1.815-2.275-2.61-3.831-2.61c-1.979,0-3.312,0.701-4.271,2.266h-0.042l-0.005-1.951h-2.312V27.308z"/>
				<path fill-rule="evenodd" clip-rule="evenodd" fill="#27241F" d="M144.073,12.023h1.773l3.454-3.801h-2.874L144.073,12.023z
					 M141.375,16.931c0.989-0.824,2.5-1.356,3.893-1.356c2.485,0,3.326,1.179,3.326,3.497c-0.98-0.044-1.664-0.044-2.64-0.044
					c-2.553,0-6.248,1.035-6.248,4.408c0,2.925,2.041,4.196,4.922,4.196c2.275,0,3.592-1.242,4.182-2.057h0.041v1.732h2.326
					c-0.053-0.393-0.108-1.109-0.108-2.623V19.12c0-3.652-1.564-5.549-5.407-5.549c-1.711,0-3.186,0.525-4.434,1.26L141.375,16.931z
					 M148.594,22.102c0,2.005-1.295,3.522-3.747,3.522c-1.143,0-2.508-0.759-2.508-2.188c0-2.369,3.322-2.582,4.67-2.582
					c0.523,0,1.049,0.062,1.585,0.062V22.102z"/>
				<path fill-rule="evenodd" clip-rule="evenodd" fill="#27241F" d="M153.238,27.308l2.471,0.009v-6.214
					c0-3.27,1.267-5.528,4.083-5.528c2.161,0.135,2.85,1.662,2.85,4.791v6.951h2.481v-7.975c0-3.607-1.561-5.771-5.04-5.771
					c-1.87,0-3.668,0.923-4.401,2.449h-0.055v-2.133h-2.389V27.308z"/>
			</g>
			<g>
				<g>
					<polygon fill-rule="evenodd" clip-rule="evenodd" fill="#27241F" points="93.059,50.969 103.39,50.978 103.39,48.66 
						95.689,48.66 95.678,32.598 93.051,32.598 					"/>
					<path fill-rule="evenodd" clip-rule="evenodd" fill="#27241F" d="M106.206,40.604c0.986-0.839,2.484-1.37,3.893-1.37
						c2.482,0,3.318,1.186,3.318,3.509c-0.969-0.05-1.649-0.065-2.64-0.065c-2.56,0-6.245,1.062-6.245,4.426
						c0,2.918,2.018,4.188,4.935,4.188c2.261,0,3.584-1.24,4.165-2.056h0.044v1.743h2.336c-0.059-0.387-0.106-1.11-0.106-2.635
						v-5.558c0-3.653-1.556-5.546-5.418-5.558c-1.709,0-3.188,0.532-4.424,1.271L106.206,40.604z M113.417,45.762
						c0,2.003-1.288,3.528-3.735,3.528c-1.141,0-2.513-0.769-2.513-2.188c0-2.371,3.318-2.575,4.67-2.575
						c0.533,0,1.044,0.055,1.578,0.055V45.762z"/>
					<path fill-rule="evenodd" clip-rule="evenodd" fill="#27241F" d="M117.78,50.978h2.479v-6.105c0-3.365,1.451-5.48,3.67-5.472
						c0.427,0,0.921,0.048,1.365,0.234v-2.214c-0.524-0.104-0.902-0.182-1.634-0.182c-1.423,0-2.847,0.999-3.513,2.396h-0.052
						v-2.083h-2.317L117.78,50.978z"/>
					<path fill-rule="evenodd" clip-rule="evenodd" fill="#27241F" d="M126.945,50.981h2.463v-6.108
						c0-3.365,1.458-5.472,3.671-5.472c0.414,0,0.915,0.048,1.367,0.234v-2.214c-0.523-0.099-0.897-0.182-1.635-0.182
						c-1.422,0-2.848,0.999-3.498,2.396h-0.063v-2.083h-2.305V50.981z"/>
					<path fill-rule="evenodd" clip-rule="evenodd" fill="#27241F" d="M136.417,40.611c0.996-0.846,2.51-1.371,3.909-1.371
						c2.471,0.004,3.312,1.192,3.312,3.509c-0.958-0.056-1.654-0.056-2.64-0.056c-2.558,0-6.241,1.049-6.241,4.418
						c0,2.921,2.027,4.18,4.929,4.188c2.269,0,3.593-1.242,4.171-2.058h0.042v1.74h2.333c-0.063-0.39-0.112-1.104-0.112-2.631
						v-5.548c0-3.661-1.557-5.562-5.406-5.562c-1.711,0-3.18,0.521-4.432,1.265L136.417,40.611z M143.638,45.777
						c0,2.001-1.293,3.52-3.734,3.52c-1.141,0-2.513-0.759-2.513-2.186c0-2.368,3.322-2.576,4.67-2.576
						c0.524,0,1.054,0.054,1.577,0.054V45.777z"/>
					<path fill-rule="evenodd" clip-rule="evenodd" fill="#27241F" d="M147.702,35.688h1.756l3.467-3.795h-2.881L147.702,35.688z
						 M148.198,50.981h2.488l-0.02-13.423h-2.469V50.981z"/>
					<path fill-rule="evenodd" clip-rule="evenodd" fill="#27241F" d="M153.27,50.981h2.483l-0.007-6.212
						c0-3.252,1.268-5.525,4.08-5.516c2.163,0.118,2.852,1.646,2.852,4.786v6.948h2.491v-7.975c0-3.605-1.57-5.771-5.042-5.771
						c-1.879,0-3.672,0.923-4.405,2.453h-0.048v-2.13h-2.404V50.981z"/>
					<path fill-rule="evenodd" clip-rule="evenodd" fill="#6F757B" d="M86.553,41.624c-0.118,1.991-0.406,3.139-1.087,4.214
						l-3.533-4.045c1.835-0.822,3.818-2.315,3.818-4.535c0-2.74-2.052-3.942-4.324-3.942c-2.502,0-4.541,1.291-4.541,4.09
						c0,1.666,0.864,2.843,1.8,3.965c-2.357,0.955-3.896,2.445-3.896,5.086c0,2.914,2.178,4.864,5.617,4.864
						c2.22,0,3.738-0.571,4.985-1.997l1.448,1.7h3.112l-3.053-3.437c1.008-1.526,1.779-3.145,2-5.963H86.553z M77.428,46.285
						c0-1.723,1.132-2.54,2.456-3.443l4.199,4.917c-0.549,0.626-1.601,1.675-3.219,1.675C79.054,49.433,77.428,48.198,77.428,46.285
						z M79.239,37.456c0-1.498,0.94-2.243,2.095-2.243c1.188,0,2.062,0.552,2.062,2.145c0,1.469-1.568,2.544-2.61,3.038
						C80.029,39.572,79.239,38.616,79.239,37.456z"/>
				</g>
				<g>
					<g>
						<path fill="#27241F" d="M170.36,50.953c-1.782,0-3.232-1.447-3.232-3.227c0-1.785,1.45-3.233,3.232-3.233
							c1.783,0,3.234,1.448,3.234,3.233C173.595,49.505,172.144,50.953,170.36,50.953z M170.36,44.88
							c-1.568,0-2.845,1.276-2.845,2.846c0,1.564,1.276,2.837,2.845,2.837c1.569,0,2.845-1.272,2.845-2.837
							C173.205,46.157,171.93,44.88,170.36,44.88z"/>
					</g>
					<g>
						<path fill="#27241F" d="M169.156,45.731c0.271-0.048,0.662-0.087,1.025-0.087c0.572,0,0.946,0.113,1.197,0.341
							c0.203,0.184,0.328,0.466,0.328,0.791c0,0.541-0.345,0.904-0.775,1.05v0.021c0.313,0.11,0.503,0.405,0.602,0.836
							c0.136,0.578,0.234,0.978,0.321,1.137h-0.556c-0.066-0.123-0.159-0.472-0.27-0.989c-0.123-0.572-0.352-0.786-0.836-0.805
							h-0.504v1.794h-0.533V45.731z M169.689,47.62h0.547c0.571,0,0.935-0.314,0.935-0.788c0-0.534-0.387-0.767-0.952-0.767
							c-0.258,0-0.438,0.017-0.529,0.041V47.62z"/>
					</g>
				</g>
			</g>
		</g>
		<g>
			<path fill="#27241E" d="M75.139,56.001h2.404v0.54h-1.797v1.293h1.736v0.543h-1.736v1.319H77.6v0.539h-2.461V56.001z"/>
			<path fill="#27241E" d="M90.451,56.001h0.567v4.241h-0.611v-3.301l-1.302,1.641h-0.112l-1.319-1.641v3.301h-0.606v-4.241h0.574
				l1.409,1.741L90.451,56.001z"/>
			<path fill="#27241E" d="M100.73,60.243v-4.246h1.345c0.405,0,0.728,0.107,0.967,0.327c0.242,0.218,0.363,0.512,0.363,0.879
				c0,0.247-0.062,0.467-0.185,0.657c-0.125,0.19-0.292,0.326-0.509,0.414c-0.214,0.085-0.521,0.13-0.922,0.13h-0.449v1.839H100.73z
				 M101.969,56.537h-0.628v1.326h0.664c0.249,0,0.438-0.058,0.573-0.175c0.132-0.116,0.199-0.282,0.199-0.499
				C102.777,56.753,102.508,56.537,101.969,56.537z"/>
			<path fill="#27241E" d="M112.781,60.243v-4.241h1.063c0.43,0,0.771,0.105,1.021,0.317c0.251,0.214,0.377,0.5,0.377,0.863
				c0,0.248-0.06,0.461-0.184,0.641s-0.302,0.315-0.532,0.402c0.137,0.091,0.27,0.213,0.397,0.366
				c0.13,0.153,0.312,0.422,0.547,0.804c0.148,0.241,0.266,0.421,0.354,0.543l0.227,0.305h-0.724l-0.185-0.279
				c-0.005-0.011-0.02-0.027-0.036-0.052l-0.118-0.168l-0.188-0.31l-0.204-0.332c-0.126-0.173-0.24-0.312-0.345-0.415
				c-0.103-0.104-0.198-0.178-0.282-0.223c-0.084-0.046-0.225-0.067-0.424-0.067h-0.159v1.846H112.781z M113.571,56.517h-0.183v1.34
				h0.231c0.309,0,0.517-0.028,0.633-0.08c0.115-0.052,0.203-0.132,0.269-0.238c0.062-0.105,0.094-0.227,0.094-0.362
				c0-0.134-0.036-0.255-0.105-0.362c-0.07-0.108-0.171-0.185-0.299-0.229C114.081,56.54,113.869,56.517,113.571,56.517z"/>
			<path fill="#27241E" d="M125.351,56.001h2.404v0.54h-1.798v1.293h1.736v0.543h-1.736v1.319h1.855v0.539h-2.462V56.001z"/>
			<path fill="#27241E" d="M138.341,58.465l-0.463-0.281c-0.287-0.177-0.493-0.35-0.617-0.521c-0.122-0.17-0.182-0.366-0.182-0.59
				c0-0.334,0.114-0.605,0.347-0.814c0.231-0.208,0.532-0.311,0.902-0.311c0.354,0,0.679,0.098,0.976,0.296v0.691
				c-0.306-0.295-0.635-0.442-0.986-0.442c-0.198,0-0.361,0.046-0.489,0.138c-0.129,0.092-0.191,0.209-0.191,0.353
				c0,0.126,0.049,0.247,0.141,0.358c0.094,0.109,0.245,0.226,0.454,0.348l0.461,0.275c0.52,0.308,0.778,0.7,0.778,1.179
				c0,0.34-0.115,0.616-0.342,0.83c-0.229,0.212-0.523,0.317-0.888,0.317c-0.421,0-0.802-0.128-1.146-0.386v-0.771
				c0.328,0.416,0.707,0.624,1.138,0.624c0.191,0,0.35-0.054,0.477-0.16c0.126-0.105,0.19-0.237,0.19-0.397
				C138.9,58.943,138.712,58.697,138.341,58.465z"/>
			<path fill="#27241E" d="M150.323,55.978h0.426l1.902,4.265h-0.621l-0.565-1.258h-1.81l-0.53,1.258h-0.623L150.323,55.978z
				 M151.215,58.445l-0.685-1.535l-0.634,1.535H151.215z"/>
			<path fill="#27241E" d="M162.997,58.465l-0.462-0.281c-0.289-0.177-0.494-0.35-0.617-0.521c-0.122-0.17-0.184-0.366-0.184-0.59
				c0-0.334,0.116-0.605,0.347-0.814c0.232-0.208,0.534-0.311,0.905-0.311c0.354,0,0.678,0.098,0.973,0.296v0.691
				c-0.305-0.295-0.634-0.442-0.986-0.442c-0.198,0-0.359,0.046-0.488,0.138c-0.128,0.092-0.19,0.209-0.19,0.353
				c0,0.126,0.046,0.247,0.141,0.358c0.094,0.109,0.245,0.226,0.454,0.348l0.462,0.275c0.518,0.308,0.777,0.7,0.777,1.179
				c0,0.34-0.113,0.616-0.342,0.83c-0.229,0.212-0.524,0.317-0.888,0.317c-0.421,0-0.802-0.128-1.146-0.386v-0.771
				c0.328,0.416,0.708,0.624,1.138,0.624c0.191,0,0.351-0.054,0.477-0.16c0.125-0.105,0.188-0.237,0.188-0.397
				C163.556,58.943,163.369,58.697,162.997,58.465z"/>
		</g>
	</g>
</g>
</svg>
