<svg xmlns="http://www.w3.org/2000/svg" viewBox="0 0 496 496"><defs><style>.cls-1{fill:#4f4f4f;}</style></defs><g id="Capa_2" data-name="Capa 2"><g id="Capa_1-2" data-name="Capa 1"><path class="cls-1" d="M248,36a211.19,211.19,0,1,1-82.53,16.64A210.83,210.83,0,0,1,248,36m0-36C111,0,0,111,0,248S111,496,248,496,496,385,496,248,385,0,248,0Z"/><path class="cls-1" d="M349.8,185.8,287.6,248l62.2,62.2a12,12,0,0,1,0,17l-22.6,22.6a12,12,0,0,1-17,0L248,287.6l-62.2,62.2a12,12,0,0,1-17,0l-22.6-22.6a12,12,0,0,1,0-17L208.4,248l-62.2-62.2a12,12,0,0,1,0-17l22.6-22.6a12,12,0,0,1,17,0L248,208.4l62.2-62.2a12,12,0,0,1,17,0l22.6,22.6a12,12,0,0,1,0,17Z"/></g></g></svg>